<svg width="462" height="29" viewBox="0 0 462 29" fill="none" xmlns="http://www.w3.org/2000/svg">
<path d="M27.928 11.904C26.8187 11.3493 26.264 10.4747 26.264 9.28C26.264 8.704 26.408 8.176 26.696 7.696C26.984 7.216 27.416 6.83733 27.992 6.56C28.568 6.272 29.272 6.128 30.104 6.128C30.9253 6.128 31.624 6.272 32.2 6.56C32.7867 6.83733 33.224 7.216 33.512 7.696C33.8 8.176 33.944 8.704 33.944 9.28C33.944 9.87733 33.7893 10.4053 33.48 10.864C33.1813 11.312 32.7813 11.6587 32.28 11.904C32.888 12.128 33.368 12.496 33.72 13.008C34.072 13.5093 34.248 14.1013 34.248 14.784C34.248 15.4773 34.072 16.0907 33.72 16.624C33.368 17.1573 32.8773 17.568 32.248 17.856C31.6187 18.144 30.904 18.288 30.104 18.288C29.304 18.288 28.5893 18.144 27.96 17.856C27.3413 17.568 26.856 17.1573 26.504 16.624C26.152 16.0907 25.976 15.4773 25.976 14.784C25.976 14.0907 26.152 13.4933 26.504 12.992C26.856 12.4907 27.3307 12.128 27.928 11.904ZM32.2 9.504C32.2 8.90667 32.0133 8.448 31.64 8.128C31.2667 7.808 30.7547 7.648 30.104 7.648C29.464 7.648 28.9573 7.808 28.584 8.128C28.2107 8.448 28.024 8.912 28.024 9.52C28.024 10.0533 28.216 10.4907 28.6 10.832C28.9947 11.1627 29.496 11.328 30.104 11.328C30.712 11.328 31.2133 11.1573 31.608 10.816C32.0027 10.4747 32.2 10.0373 32.2 9.504ZM30.104 12.704C29.4 12.704 28.824 12.88 28.376 13.232C27.9387 13.5733 27.72 14.0693 27.72 14.72C27.72 15.328 27.9333 15.824 28.36 16.208C28.7867 16.5813 29.368 16.768 30.104 16.768C30.8293 16.768 31.4 16.576 31.816 16.192C32.2427 15.808 32.456 15.3173 32.456 14.72C32.456 14.08 32.2373 13.584 31.8 13.232C31.3733 12.88 30.808 12.704 30.104 12.704ZM35.9231 8V6.336H39.2511V18H37.4111V8H35.9231ZM52.2811 18L47.9771 13.024V18H46.1531V6.88H47.9771V11.952L52.2971 6.88H54.5851L49.7531 12.448L54.6651 18H52.2811ZM57.2061 8.016C56.8755 8.016 56.5981 7.904 56.3741 7.68C56.1501 7.456 56.0381 7.17867 56.0381 6.848C56.0381 6.51733 56.1501 6.24 56.3741 6.016C56.5981 5.792 56.8755 5.68 57.2061 5.68C57.5261 5.68 57.7981 5.792 58.0221 6.016C58.2461 6.24 58.3581 6.51733 58.3581 6.848C58.3581 7.17867 58.2461 7.456 58.0221 7.68C57.7981 7.904 57.5261 8.016 57.2061 8.016ZM58.1021 9.184V18H56.2781V9.184H58.1021ZM64.9449 9.04C65.6382 9.04 66.2569 9.184 66.8009 9.472C67.3555 9.76 67.7875 10.1867 68.0969 10.752C68.4062 11.3173 68.5609 12 68.5609 12.8V18H66.7529V13.072C66.7529 12.2827 66.5555 11.68 66.1609 11.264C65.7662 10.8373 65.2275 10.624 64.5449 10.624C63.8622 10.624 63.3182 10.8373 62.9129 11.264C62.5182 11.68 62.3209 12.2827 62.3209 13.072V18H60.4969V9.184H62.3209V10.192C62.6195 9.82933 62.9982 9.54667 63.4569 9.344C63.9262 9.14133 64.4222 9.04 64.9449 9.04ZM74.4395 9.04C75.1222 9.04 75.7248 9.17867 76.2475 9.456C76.7808 9.72267 77.1968 10.0587 77.4955 10.464V9.184H79.3355V18.144C79.3355 18.9547 79.1648 19.6747 78.8235 20.304C78.4822 20.944 77.9862 21.4453 77.3355 21.808C76.6955 22.1707 75.9275 22.352 75.0315 22.352C73.8368 22.352 72.8448 22.0693 72.0555 21.504C71.2662 20.9493 70.8182 20.192 70.7115 19.232H72.5195C72.6582 19.6907 72.9515 20.0587 73.3995 20.336C73.8582 20.624 74.4022 20.768 75.0315 20.768C75.7675 20.768 76.3595 20.544 76.8075 20.096C77.2662 19.648 77.4955 18.9973 77.4955 18.144V16.672C77.1862 17.088 76.7648 17.44 76.2315 17.728C75.7088 18.0053 75.1115 18.144 74.4395 18.144C73.6715 18.144 72.9675 17.952 72.3275 17.568C71.6982 17.1733 71.1968 16.6293 70.8235 15.936C70.4608 15.232 70.2795 14.4373 70.2795 13.552C70.2795 12.6667 70.4608 11.8827 70.8235 11.2C71.1968 10.5173 71.6982 9.98933 72.3275 9.616C72.9675 9.232 73.6715 9.04 74.4395 9.04ZM77.4955 13.584C77.4955 12.976 77.3675 12.448 77.1115 12C76.8662 11.552 76.5408 11.2107 76.1355 10.976C75.7302 10.7413 75.2928 10.624 74.8235 10.624C74.3542 10.624 73.9168 10.7413 73.5115 10.976C73.1062 11.2 72.7755 11.536 72.5195 11.984C72.2742 12.4213 72.1515 12.944 72.1515 13.552C72.1515 14.16 72.2742 14.6933 72.5195 15.152C72.7755 15.6107 73.1062 15.9627 73.5115 16.208C73.9275 16.4427 74.3648 16.56 74.8235 16.56C75.2928 16.56 75.7302 16.4427 76.1355 16.208C76.5408 15.9733 76.8662 15.632 77.1115 15.184C77.3675 14.7253 77.4955 14.192 77.4955 13.584ZM89.5515 18.112C88.8048 18.112 88.1328 17.984 87.5355 17.728C86.9382 17.4613 86.4688 17.088 86.1275 16.608C85.7862 16.128 85.6155 15.568 85.6155 14.928H87.5675C87.6102 15.408 87.7968 15.8027 88.1275 16.112C88.4688 16.4213 88.9435 16.576 89.5515 16.576C90.1808 16.576 90.6715 16.4267 91.0235 16.128C91.3755 15.8187 91.5515 15.424 91.5515 14.944C91.5515 14.5707 91.4395 14.2667 91.2155 14.032C91.0022 13.7973 90.7302 13.616 90.3995 13.488C90.0795 13.36 89.6315 13.2213 89.0555 13.072C88.3302 12.88 87.7382 12.688 87.2795 12.496C86.8315 12.2933 86.4475 11.984 86.1275 11.568C85.8075 11.152 85.6475 10.5973 85.6475 9.904C85.6475 9.264 85.8075 8.704 86.1275 8.224C86.4475 7.744 86.8955 7.376 87.4715 7.12C88.0475 6.864 88.7142 6.736 89.4715 6.736C90.5488 6.736 91.4288 7.008 92.1115 7.552C92.8048 8.08533 93.1888 8.82133 93.2635 9.76H91.2475C91.2155 9.35467 91.0235 9.008 90.6715 8.72C90.3195 8.432 89.8555 8.288 89.2795 8.288C88.7568 8.288 88.3302 8.42133 87.9995 8.688C87.6688 8.95467 87.5035 9.33867 87.5035 9.84C87.5035 10.1813 87.6048 10.464 87.8075 10.688C88.0208 10.9013 88.2875 11.072 88.6075 11.2C88.9275 11.328 89.3648 11.4667 89.9195 11.616C90.6555 11.8187 91.2528 12.0213 91.7115 12.224C92.1808 12.4267 92.5755 12.7413 92.8955 13.168C93.2262 13.584 93.3915 14.144 93.3915 14.848C93.3915 15.4133 93.2368 15.9467 92.9275 16.448C92.6288 16.9493 92.1862 17.3547 91.5995 17.664C91.0235 17.9627 90.3408 18.112 89.5515 18.112ZM97.6718 10.672V15.552C97.6718 15.8827 97.7464 16.1227 97.8958 16.272C98.0558 16.4107 98.3224 16.48 98.6958 16.48H99.8158V18H98.3758C97.5544 18 96.9251 17.808 96.4878 17.424C96.0504 17.04 95.8318 16.416 95.8318 15.552V10.672H94.7918V9.184H95.8318V6.992H97.6718V9.184H99.8158V10.672H97.6718ZM111.781 18L107.477 13.024V18H105.653V6.88H107.477V11.952L111.797 6.88H114.085L109.253 12.448L114.165 18H111.781ZM120.226 9.04C120.919 9.04 121.538 9.184 122.082 9.472C122.637 9.76 123.069 10.1867 123.378 10.752C123.687 11.3173 123.842 12 123.842 12.8V18H122.034V13.072C122.034 12.2827 121.837 11.68 121.442 11.264C121.047 10.8373 120.509 10.624 119.826 10.624C119.143 10.624 118.599 10.8373 118.194 11.264C117.799 11.68 117.602 12.2827 117.602 13.072V18H115.778V9.184H117.602V10.192C117.901 9.82933 118.279 9.54667 118.738 9.344C119.207 9.14133 119.703 9.04 120.226 9.04ZM134.153 9.184V18H132.329V16.96C132.041 17.3227 131.662 17.6107 131.193 17.824C130.734 18.0267 130.243 18.128 129.721 18.128C129.027 18.128 128.403 17.984 127.849 17.696C127.305 17.408 126.873 16.9813 126.553 16.416C126.243 15.8507 126.089 15.168 126.089 14.368V9.184H127.897V14.096C127.897 14.8853 128.094 15.4933 128.489 15.92C128.883 16.336 129.422 16.544 130.105 16.544C130.787 16.544 131.326 16.336 131.721 15.92C132.126 15.4933 132.329 14.8853 132.329 14.096V9.184H134.153ZM138.687 10.672V15.552C138.687 15.8827 138.762 16.1227 138.911 16.272C139.071 16.4107 139.338 16.48 139.711 16.48H140.831V18H139.391C138.57 18 137.941 17.808 137.503 17.424C137.066 17.04 136.847 16.416 136.847 15.552V10.672H135.807V9.184H136.847V6.992H138.687V9.184H140.831V10.672H138.687ZM145.713 18.144C145.019 18.144 144.395 18.0213 143.841 17.776C143.297 17.52 142.865 17.1787 142.545 16.752C142.225 16.3147 142.054 15.8293 142.033 15.296H143.921C143.953 15.6693 144.129 15.984 144.449 16.24C144.779 16.4853 145.19 16.608 145.681 16.608C146.193 16.608 146.587 16.512 146.865 16.32C147.153 16.1173 147.297 15.8613 147.297 15.552C147.297 15.2213 147.137 14.976 146.817 14.816C146.507 14.656 146.011 14.48 145.329 14.288C144.667 14.1067 144.129 13.9307 143.713 13.76C143.297 13.5893 142.934 13.328 142.625 12.976C142.326 12.624 142.177 12.16 142.177 11.584C142.177 11.1147 142.315 10.688 142.593 10.304C142.87 9.90933 143.265 9.6 143.777 9.376C144.299 9.152 144.897 9.04 145.569 9.04C146.571 9.04 147.377 9.296 147.985 9.808C148.603 10.3093 148.934 10.9973 148.977 11.872H147.153C147.121 11.4773 146.961 11.1627 146.673 10.928C146.385 10.6933 145.995 10.576 145.505 10.576C145.025 10.576 144.657 10.6667 144.401 10.848C144.145 11.0293 144.017 11.2693 144.017 11.568C144.017 11.8027 144.102 12 144.273 12.16C144.443 12.32 144.651 12.448 144.897 12.544C145.142 12.6293 145.505 12.7413 145.985 12.88C146.625 13.0507 147.147 13.2267 147.553 13.408C147.969 13.5787 148.326 13.8347 148.625 14.176C148.923 14.5173 149.078 14.9707 149.089 15.536C149.089 16.0373 148.95 16.4853 148.673 16.88C148.395 17.2747 148.001 17.584 147.489 17.808C146.987 18.032 146.395 18.144 145.713 18.144ZM154.755 10.672H153.123V18H151.283V10.672H150.243V9.184H151.283V8.56C151.283 7.54667 151.55 6.81067 152.083 6.352C152.627 5.88267 153.475 5.648 154.627 5.648V7.168C154.073 7.168 153.683 7.27467 153.459 7.488C153.235 7.69067 153.123 8.048 153.123 8.56V9.184H154.755V10.672ZM160.196 18.144C159.364 18.144 158.612 17.9573 157.94 17.584C157.268 17.2 156.74 16.6667 156.356 15.984C155.972 15.2907 155.78 14.4907 155.78 13.584C155.78 12.688 155.977 11.8933 156.372 11.2C156.767 10.5067 157.305 9.97333 157.988 9.6C158.671 9.22667 159.433 9.04 160.276 9.04C161.119 9.04 161.881 9.22667 162.564 9.6C163.247 9.97333 163.785 10.5067 164.18 11.2C164.575 11.8933 164.772 12.688 164.772 13.584C164.772 14.48 164.569 15.2747 164.164 15.968C163.759 16.6613 163.204 17.2 162.5 17.584C161.807 17.9573 161.039 18.144 160.196 18.144ZM160.196 16.56C160.665 16.56 161.103 16.448 161.508 16.224C161.924 16 162.26 15.664 162.516 15.216C162.772 14.768 162.9 14.224 162.9 13.584C162.9 12.944 162.777 12.4053 162.532 11.968C162.287 11.52 161.961 11.184 161.556 10.96C161.151 10.736 160.713 10.624 160.244 10.624C159.775 10.624 159.337 10.736 158.932 10.96C158.537 11.184 158.223 11.52 157.988 11.968C157.753 12.4053 157.636 12.944 157.636 13.584C157.636 14.5333 157.876 15.2693 158.356 15.792C158.847 16.304 159.46 16.56 160.196 16.56ZM168.399 10.464C168.666 10.016 169.018 9.66933 169.455 9.424C169.903 9.168 170.431 9.04 171.039 9.04V10.928H170.575C169.86 10.928 169.316 11.1093 168.943 11.472C168.58 11.8347 168.399 12.464 168.399 13.36V18H166.575V9.184H168.399V10.464ZM172.108 13.552C172.108 12.6667 172.289 11.8827 172.652 11.2C173.025 10.5173 173.526 9.98933 174.156 9.616C174.796 9.232 175.505 9.04 176.284 9.04C176.86 9.04 177.425 9.168 177.98 9.424C178.545 9.66933 178.993 10 179.324 10.416V6.16H181.164V18H179.324V16.672C179.025 17.0987 178.609 17.4507 178.076 17.728C177.553 18.0053 176.95 18.144 176.268 18.144C175.5 18.144 174.796 17.952 174.156 17.568C173.526 17.1733 173.025 16.6293 172.652 15.936C172.289 15.232 172.108 14.4373 172.108 13.552ZM179.324 13.584C179.324 12.976 179.196 12.448 178.94 12C178.694 11.552 178.369 11.2107 177.964 10.976C177.558 10.7413 177.121 10.624 176.652 10.624C176.182 10.624 175.745 10.7413 175.34 10.976C174.934 11.2 174.604 11.536 174.348 11.984C174.102 12.4213 173.98 12.944 173.98 13.552C173.98 14.16 174.102 14.6933 174.348 15.152C174.604 15.6107 174.934 15.9627 175.34 16.208C175.756 16.4427 176.193 16.56 176.652 16.56C177.121 16.56 177.558 16.4427 177.964 16.208C178.369 15.9733 178.694 15.632 178.94 15.184C179.196 14.7253 179.324 14.192 179.324 13.584ZM187.108 12.416C187.108 11.328 187.358 10.352 187.86 9.488C188.372 8.624 189.06 7.952 189.924 7.472C190.798 6.98133 191.753 6.736 192.788 6.736C193.972 6.736 195.022 7.02933 195.94 7.616C196.868 8.192 197.54 9.01333 197.956 10.08H195.764C195.476 9.49333 195.076 9.056 194.564 8.768C194.052 8.48 193.46 8.336 192.788 8.336C192.052 8.336 191.396 8.50133 190.82 8.832C190.244 9.16267 189.79 9.63733 189.46 10.256C189.14 10.8747 188.98 11.5947 188.98 12.416C188.98 13.2373 189.14 13.9573 189.46 14.576C189.79 15.1947 190.244 15.6747 190.82 16.016C191.396 16.3467 192.052 16.512 192.788 16.512C193.46 16.512 194.052 16.368 194.564 16.08C195.076 15.792 195.476 15.3547 195.764 14.768H197.956C197.54 15.8347 196.868 16.656 195.94 17.232C195.022 17.808 193.972 18.096 192.788 18.096C191.742 18.096 190.788 17.856 189.924 17.376C189.06 16.8853 188.372 16.208 187.86 15.344C187.358 14.48 187.108 13.504 187.108 12.416ZM204.651 9.04C205.323 9.04 205.92 9.184 206.443 9.472C206.976 9.76 207.392 10.1867 207.691 10.752C208 11.3173 208.155 12 208.155 12.8V18H206.347V13.072C206.347 12.2827 206.149 11.68 205.755 11.264C205.36 10.8373 204.821 10.624 204.139 10.624C203.456 10.624 202.912 10.8373 202.507 11.264C202.112 11.68 201.915 12.2827 201.915 13.072V18H200.091V6.16H201.915V10.208C202.224 9.83467 202.613 9.54667 203.083 9.344C203.563 9.14133 204.085 9.04 204.651 9.04ZM218.561 13.376C218.561 13.7067 218.54 14.0053 218.497 14.272H211.761C211.815 14.976 212.076 15.5413 212.545 15.968C213.015 16.3947 213.591 16.608 214.273 16.608C215.255 16.608 215.948 16.1973 216.353 15.376H218.321C218.055 16.1867 217.569 16.8533 216.865 17.376C216.172 17.888 215.308 18.144 214.273 18.144C213.431 18.144 212.673 17.9573 212.001 17.584C211.34 17.2 210.817 16.6667 210.433 15.984C210.06 15.2907 209.873 14.4907 209.873 13.584C209.873 12.6773 210.055 11.8827 210.417 11.2C210.791 10.5067 211.308 9.97333 211.969 9.6C212.641 9.22667 213.409 9.04 214.273 9.04C215.105 9.04 215.847 9.22133 216.497 9.584C217.148 9.94667 217.655 10.4587 218.017 11.12C218.38 11.7707 218.561 12.5227 218.561 13.376ZM216.657 12.8C216.647 12.128 216.407 11.5893 215.937 11.184C215.468 10.7787 214.887 10.576 214.193 10.576C213.564 10.576 213.025 10.7787 212.577 11.184C212.129 11.5787 211.863 12.1173 211.777 12.8H216.657ZM223.556 18.144C222.863 18.144 222.239 18.0213 221.684 17.776C221.14 17.52 220.708 17.1787 220.388 16.752C220.068 16.3147 219.898 15.8293 219.876 15.296H221.764C221.796 15.6693 221.972 15.984 222.292 16.24C222.623 16.4853 223.034 16.608 223.524 16.608C224.036 16.608 224.431 16.512 224.708 16.32C224.996 16.1173 225.14 15.8613 225.14 15.552C225.14 15.2213 224.98 14.976 224.66 14.816C224.351 14.656 223.855 14.48 223.172 14.288C222.511 14.1067 221.972 13.9307 221.556 13.76C221.14 13.5893 220.778 13.328 220.468 12.976C220.17 12.624 220.02 12.16 220.02 11.584C220.02 11.1147 220.159 10.688 220.436 10.304C220.714 9.90933 221.108 9.6 221.62 9.376C222.143 9.152 222.74 9.04 223.412 9.04C224.415 9.04 225.22 9.296 225.828 9.808C226.447 10.3093 226.778 10.9973 226.82 11.872H224.996C224.964 11.4773 224.804 11.1627 224.516 10.928C224.228 10.6933 223.839 10.576 223.348 10.576C222.868 10.576 222.5 10.6667 222.244 10.848C221.988 11.0293 221.86 11.2693 221.86 11.568C221.86 11.8027 221.946 12 222.116 12.16C222.287 12.32 222.495 12.448 222.74 12.544C222.986 12.6293 223.348 12.7413 223.828 12.88C224.468 13.0507 224.991 13.2267 225.396 13.408C225.812 13.5787 226.17 13.8347 226.468 14.176C226.767 14.5173 226.922 14.9707 226.932 15.536C226.932 16.0373 226.794 16.4853 226.516 16.88C226.239 17.2747 225.844 17.584 225.332 17.808C224.831 18.032 224.239 18.144 223.556 18.144ZM233.463 9.04C234.135 9.04 234.732 9.184 235.255 9.472C235.788 9.76 236.204 10.1867 236.503 10.752C236.812 11.3173 236.967 12 236.967 12.8V18H235.159V13.072C235.159 12.2827 234.962 11.68 234.567 11.264C234.172 10.8373 233.634 10.624 232.951 10.624C232.268 10.624 231.724 10.8373 231.319 11.264C230.924 11.68 230.727 12.2827 230.727 13.072V18H228.903V6.16H230.727V10.208C231.036 9.83467 231.426 9.54667 231.895 9.344C232.375 9.14133 232.898 9.04 233.463 9.04ZM240.222 8.016C239.891 8.016 239.614 7.904 239.39 7.68C239.166 7.456 239.054 7.17867 239.054 6.848C239.054 6.51733 239.166 6.24 239.39 6.016C239.614 5.792 239.891 5.68 240.222 5.68C240.542 5.68 240.814 5.792 241.038 6.016C241.262 6.24 241.374 6.51733 241.374 6.848C241.374 7.17867 241.262 7.456 241.038 7.68C240.814 7.904 240.542 8.016 240.222 8.016ZM241.118 9.184V18H239.294V9.184H241.118ZM245.337 10.464C245.603 10.016 245.955 9.66933 246.393 9.424C246.841 9.168 247.369 9.04 247.977 9.04V10.928H247.513C246.798 10.928 246.254 11.1093 245.881 11.472C245.518 11.8347 245.337 12.464 245.337 13.36V18H243.513V9.184H245.337V10.464ZM257.733 13.376C257.733 13.7067 257.712 14.0053 257.669 14.272H250.933C250.986 14.976 251.248 15.5413 251.717 15.968C252.186 16.3947 252.762 16.608 253.445 16.608C254.426 16.608 255.12 16.1973 255.525 15.376H257.493C257.226 16.1867 256.741 16.8533 256.037 17.376C255.344 17.888 254.48 18.144 253.445 18.144C252.602 18.144 251.845 17.9573 251.173 17.584C250.512 17.2 249.989 16.6667 249.605 15.984C249.232 15.2907 249.045 14.4907 249.045 13.584C249.045 12.6773 249.226 11.8827 249.589 11.2C249.962 10.5067 250.48 9.97333 251.141 9.6C251.813 9.22667 252.581 9.04 253.445 9.04C254.277 9.04 255.018 9.22133 255.669 9.584C256.32 9.94667 256.826 10.4587 257.189 11.12C257.552 11.7707 257.733 12.5227 257.733 13.376ZM255.829 12.8C255.818 12.128 255.578 11.5893 255.109 11.184C254.64 10.7787 254.058 10.576 253.365 10.576C252.736 10.576 252.197 10.7787 251.749 11.184C251.301 11.5787 251.034 12.1173 250.949 12.8H255.829Z" fill="white"/>
<path d="M332.792 12.992H329.56V16.304H327.864V12.992H324.632V11.456H327.864V8.144H329.56V11.456H332.792V12.992ZM335.142 8V6.336H338.47V18H336.63V8H335.142ZM349.404 20.976C348.359 19.9733 347.553 18.6987 346.988 17.152C346.433 15.6053 346.156 13.9467 346.156 12.176C346.156 10.3627 346.455 8.65067 347.052 7.04C347.66 5.42933 348.551 4.10133 349.724 3.056H351.612V3.232C350.385 4.36267 349.463 5.71733 348.844 7.296C348.225 8.87467 347.916 10.5013 347.916 12.176C347.916 13.7867 348.204 15.344 348.78 16.848C349.356 18.352 350.193 19.6693 351.292 20.8V20.976H349.404ZM352.767 8V6.336H356.095V18H354.255V8H352.767ZM359.609 15.52C360.633 14.6347 361.438 13.9093 362.025 13.344C362.622 12.768 363.118 12.1707 363.513 11.552C363.907 10.9333 364.105 10.3147 364.105 9.696C364.105 9.056 363.95 8.55467 363.641 8.192C363.342 7.82933 362.867 7.648 362.217 7.648C361.587 7.648 361.097 7.85067 360.745 8.256C360.403 8.65067 360.222 9.184 360.201 9.856H358.441C358.473 8.64 358.835 7.712 359.529 7.072C360.233 6.42133 361.123 6.096 362.201 6.096C363.363 6.096 364.27 6.416 364.921 7.056C365.582 7.696 365.913 8.54933 365.913 9.616C365.913 10.384 365.715 11.1253 365.321 11.84C364.937 12.544 364.473 13.1787 363.929 13.744C363.395 14.2987 362.713 14.944 361.881 15.68L361.161 16.32H366.233V17.84H358.457V16.512L359.609 15.52ZM367.803 9.216C367.867 8.224 368.246 7.45067 368.939 6.896C369.643 6.34133 370.539 6.064 371.627 6.064C372.374 6.064 373.019 6.19733 373.563 6.464C374.107 6.73067 374.518 7.09333 374.795 7.552C375.072 8.01067 375.211 8.528 375.211 9.104C375.211 9.76533 375.035 10.3307 374.683 10.8C374.331 11.2693 373.91 11.584 373.419 11.744V11.808C374.048 12 374.539 12.352 374.891 12.864C375.243 13.3653 375.419 14.0107 375.419 14.8C375.419 15.4293 375.275 15.9893 374.987 16.48C374.699 16.9707 374.272 17.36 373.707 17.648C373.142 17.9253 372.464 18.064 371.675 18.064C370.523 18.064 369.574 17.7707 368.827 17.184C368.091 16.5867 367.696 15.7333 367.643 14.624H369.403C369.446 15.1893 369.664 15.6533 370.059 16.016C370.454 16.368 370.987 16.544 371.659 16.544C372.31 16.544 372.811 16.368 373.163 16.016C373.515 15.6533 373.691 15.1893 373.691 14.624C373.691 13.8773 373.451 13.3493 372.971 13.04C372.502 12.72 371.776 12.56 370.795 12.56H370.379V11.056H370.811C371.675 11.0453 372.331 10.9013 372.779 10.624C373.238 10.3467 373.467 9.90933 373.467 9.312C373.467 8.8 373.302 8.39467 372.971 8.096C372.64 7.78667 372.171 7.632 371.563 7.632C370.966 7.632 370.502 7.78667 370.171 8.096C369.84 8.39467 369.643 8.768 369.579 9.216H367.803ZM377.127 20.976V20.8C378.226 19.6693 379.063 18.352 379.639 16.848C380.215 15.344 380.503 13.7867 380.503 12.176C380.503 10.5013 380.194 8.87467 379.575 7.296C378.956 5.71733 378.034 4.36267 376.807 3.232V3.056H378.695C379.868 4.10133 380.754 5.42933 381.351 7.04C381.959 8.65067 382.263 10.3627 382.263 12.176C382.263 13.9467 381.98 15.6053 381.415 17.152C380.86 18.6987 380.06 19.9733 379.015 20.976H377.127ZM389.126 8V6.336H392.454V18H390.614V8H389.126ZM395.968 15.52C396.992 14.6347 397.797 13.9093 398.384 13.344C398.981 12.768 399.477 12.1707 399.872 11.552C400.267 10.9333 400.464 10.3147 400.464 9.696C400.464 9.056 400.309 8.55467 400 8.192C399.701 7.82933 399.227 7.648 398.576 7.648C397.947 7.648 397.456 7.85067 397.104 8.256C396.763 8.65067 396.581 9.184 396.56 9.856H394.8C394.832 8.64 395.195 7.712 395.888 7.072C396.592 6.42133 397.483 6.096 398.56 6.096C399.723 6.096 400.629 6.416 401.28 7.056C401.941 7.696 402.272 8.54933 402.272 9.616C402.272 10.384 402.075 11.1253 401.68 11.84C401.296 12.544 400.832 13.1787 400.288 13.744C399.755 14.2987 399.072 14.944 398.24 15.68L397.52 16.32H402.592V17.84H394.816V16.512L395.968 15.52ZM404.162 9.216C404.226 8.224 404.605 7.45067 405.298 6.896C406.002 6.34133 406.898 6.064 407.986 6.064C408.733 6.064 409.378 6.19733 409.922 6.464C410.466 6.73067 410.877 7.09333 411.154 7.552C411.432 8.01067 411.57 8.528 411.57 9.104C411.57 9.76533 411.394 10.3307 411.042 10.8C410.69 11.2693 410.269 11.584 409.778 11.744V11.808C410.408 12 410.898 12.352 411.25 12.864C411.602 13.3653 411.778 14.0107 411.778 14.8C411.778 15.4293 411.634 15.9893 411.346 16.48C411.058 16.9707 410.632 17.36 410.066 17.648C409.501 17.9253 408.824 18.064 408.034 18.064C406.882 18.064 405.933 17.7707 405.186 17.184C404.45 16.5867 404.056 15.7333 404.002 14.624H405.762C405.805 15.1893 406.024 15.6533 406.418 16.016C406.813 16.368 407.346 16.544 408.018 16.544C408.669 16.544 409.17 16.368 409.522 16.016C409.874 15.6533 410.05 15.1893 410.05 14.624C410.05 13.8773 409.81 13.3493 409.33 13.04C408.861 12.72 408.136 12.56 407.154 12.56H406.738V11.056H407.17C408.034 11.0453 408.69 10.9013 409.138 10.624C409.597 10.3467 409.826 9.90933 409.826 9.312C409.826 8.8 409.661 8.39467 409.33 8.096C409 7.78667 408.53 7.632 407.922 7.632C407.325 7.632 406.861 7.78667 406.53 8.096C406.2 8.39467 406.002 8.768 405.938 9.216H404.162ZM413.47 15.568V14.192L418.846 6.48H421.054V13.984H422.542V15.568H421.054V18H419.262V15.568H413.47ZM419.342 8.336L415.566 13.984H419.342V8.336ZM431.574 7.904H426.214V11.088C426.438 10.7893 426.768 10.5387 427.206 10.336C427.654 10.1333 428.128 10.032 428.63 10.032C429.526 10.032 430.251 10.224 430.806 10.608C431.371 10.992 431.771 11.4773 432.006 12.064C432.251 12.6507 432.374 13.2693 432.374 13.92C432.374 14.7093 432.219 15.4133 431.91 16.032C431.611 16.64 431.158 17.12 430.55 17.472C429.952 17.824 429.216 18 428.342 18C427.179 18 426.246 17.712 425.542 17.136C424.838 16.56 424.416 15.7973 424.278 14.848H426.054C426.171 15.3493 426.432 15.7493 426.838 16.048C427.243 16.336 427.75 16.48 428.358 16.48C429.115 16.48 429.68 16.2507 430.054 15.792C430.438 15.3333 430.63 14.7253 430.63 13.968C430.63 13.2 430.438 12.6133 430.054 12.208C429.67 11.792 429.104 11.584 428.358 11.584C427.835 11.584 427.392 11.7173 427.03 11.984C426.678 12.24 426.422 12.592 426.262 13.04H424.534V6.304H431.574V7.904ZM440.545 9.04C440.427 8.54933 440.214 8.18133 439.905 7.936C439.595 7.69067 439.163 7.568 438.609 7.568C437.766 7.568 437.137 7.89333 436.721 8.544C436.305 9.184 436.086 10.2507 436.065 11.744C436.342 11.2747 436.747 10.912 437.281 10.656C437.814 10.4 438.39 10.272 439.009 10.272C439.713 10.272 440.331 10.4267 440.865 10.736C441.409 11.0347 441.83 11.472 442.128 12.048C442.438 12.624 442.593 13.312 442.593 14.112C442.593 14.8587 442.443 15.5253 442.145 16.112C441.857 16.6987 441.425 17.1627 440.849 17.504C440.273 17.8347 439.579 18 438.769 18C437.67 18 436.806 17.76 436.177 17.28C435.558 16.7893 435.121 16.1013 434.865 15.216C434.619 14.3307 434.497 13.2267 434.497 11.904C434.497 8 435.873 6.048 438.625 6.048C439.691 6.048 440.529 6.336 441.137 6.912C441.755 7.488 442.118 8.19733 442.225 9.04H440.545ZM438.609 11.808C437.958 11.808 437.403 12.0053 436.945 12.4C436.497 12.784 436.273 13.344 436.273 14.08C436.273 14.816 436.481 15.4027 436.897 15.84C437.323 16.2667 437.915 16.48 438.673 16.48C439.345 16.48 439.873 16.272 440.257 15.856C440.651 15.44 440.849 14.8853 440.849 14.192C440.849 13.4667 440.657 12.8907 440.273 12.464C439.899 12.0267 439.345 11.808 438.609 11.808ZM451.93 7.744L447.482 18H445.642L450.138 7.936H444.218V6.384H451.93V7.744ZM460.883 7.744L456.435 18H454.595L459.091 7.936H453.171V6.384H460.883V7.744Z" fill="white"/>
<path opacity="0.4" d="M7.14286 28.8571C11.0877 28.8571 14.2857 28.2175 14.2857 27.4286C14.2857 26.6396 11.0877 26 7.14286 26C3.19797 26 0 26.6396 0 27.4286C0 28.2175 3.19797 28.8571 7.14286 28.8571Z" fill="white"/>
</svg>
