<svg width="279" height="29" viewBox="0 0 279 29" fill="none" xmlns="http://www.w3.org/2000/svg">
<path d="M42.4 19.144C41.7067 19.144 41.0827 19.0213 40.528 18.776C39.984 18.52 39.552 18.1787 39.232 17.752C38.912 17.3147 38.7413 16.8293 38.72 16.296H40.608C40.64 16.6693 40.816 16.984 41.136 17.24C41.4667 17.4853 41.8773 17.608 42.368 17.608C42.88 17.608 43.2747 17.512 43.552 17.32C43.84 17.1173 43.984 16.8613 43.984 16.552C43.984 16.2213 43.824 15.976 43.504 15.816C43.1947 15.656 42.6987 15.48 42.016 15.288C41.3547 15.1067 40.816 14.9307 40.4 14.76C39.984 14.5893 39.6213 14.328 39.312 13.976C39.0133 13.624 38.864 13.16 38.864 12.584C38.864 12.1147 39.0027 11.688 39.28 11.304C39.5573 10.9093 39.952 10.6 40.464 10.376C40.9867 10.152 41.584 10.04 42.256 10.04C43.2587 10.04 44.064 10.296 44.672 10.808C45.2907 11.3093 45.6213 11.9973 45.664 12.872H43.84C43.808 12.4773 43.648 12.1627 43.36 11.928C43.072 11.6933 42.6827 11.576 42.192 11.576C41.712 11.576 41.344 11.6667 41.088 11.848C40.832 12.0293 40.704 12.2693 40.704 12.568C40.704 12.8027 40.7893 13 40.96 13.16C41.1307 13.32 41.3387 13.448 41.584 13.544C41.8293 13.6293 42.192 13.7413 42.672 13.88C43.312 14.0507 43.8347 14.2267 44.24 14.408C44.656 14.5787 45.0133 14.8347 45.312 15.176C45.6107 15.5173 45.7653 15.9707 45.776 16.536C45.776 17.0373 45.6373 17.4853 45.36 17.88C45.0827 18.2747 44.688 18.584 44.176 18.808C43.6747 19.032 43.0827 19.144 42.4 19.144ZM55.7309 10.184V19H53.9069V17.96C53.6189 18.3227 53.2402 18.6107 52.7709 18.824C52.3122 19.0267 51.8215 19.128 51.2989 19.128C50.6055 19.128 49.9815 18.984 49.4269 18.696C48.8829 18.408 48.4509 17.9813 48.1309 17.416C47.8215 16.8507 47.6669 16.168 47.6669 15.368V10.184H49.4749V15.096C49.4749 15.8853 49.6722 16.4933 50.0669 16.92C50.4615 17.336 51.0002 17.544 51.6829 17.544C52.3655 17.544 52.9042 17.336 53.2989 16.92C53.7042 16.4933 53.9069 15.8853 53.9069 15.096V10.184H55.7309ZM59.9615 11.48C60.2708 11.0747 60.6922 10.7333 61.2255 10.456C61.7588 10.1787 62.3615 10.04 63.0335 10.04C63.8015 10.04 64.5002 10.232 65.1295 10.616C65.7695 10.9893 66.2708 11.5173 66.6335 12.2C66.9962 12.8827 67.1775 13.6667 67.1775 14.552C67.1775 15.4373 66.9962 16.232 66.6335 16.936C66.2708 17.6293 65.7695 18.1733 65.1295 18.568C64.5002 18.952 63.8015 19.144 63.0335 19.144C62.3615 19.144 61.7642 19.0107 61.2415 18.744C60.7188 18.4667 60.2922 18.1253 59.9615 17.72V23.192H58.1375V10.184H59.9615V11.48ZM65.3215 14.552C65.3215 13.944 65.1935 13.4213 64.9375 12.984C64.6922 12.536 64.3615 12.2 63.9455 11.976C63.5402 11.7413 63.1028 11.624 62.6335 11.624C62.1748 11.624 61.7375 11.7413 61.3215 11.976C60.9162 12.2107 60.5855 12.552 60.3295 13C60.0842 13.448 59.9615 13.976 59.9615 14.584C59.9615 15.192 60.0842 15.7253 60.3295 16.184C60.5855 16.632 60.9162 16.9733 61.3215 17.208C61.7375 17.4427 62.1748 17.56 62.6335 17.56C63.1028 17.56 63.5402 17.4427 63.9455 17.208C64.3615 16.9627 64.6922 16.6107 64.9375 16.152C65.1935 15.6933 65.3215 15.16 65.3215 14.552ZM70.8053 11.48C71.1146 11.0747 71.5359 10.7333 72.0693 10.456C72.6026 10.1787 73.2053 10.04 73.8773 10.04C74.6453 10.04 75.3439 10.232 75.9733 10.616C76.6133 10.9893 77.1146 11.5173 77.4773 12.2C77.8399 12.8827 78.0213 13.6667 78.0213 14.552C78.0213 15.4373 77.8399 16.232 77.4773 16.936C77.1146 17.6293 76.6133 18.1733 75.9733 18.568C75.3439 18.952 74.6453 19.144 73.8773 19.144C73.2053 19.144 72.6079 19.0107 72.0853 18.744C71.5626 18.4667 71.1359 18.1253 70.8053 17.72V23.192H68.9813V10.184H70.8053V11.48ZM76.1653 14.552C76.1653 13.944 76.0373 13.4213 75.7812 12.984C75.5359 12.536 75.2053 12.2 74.7893 11.976C74.3839 11.7413 73.9466 11.624 73.4773 11.624C73.0186 11.624 72.5813 11.7413 72.1653 11.976C71.7599 12.2107 71.4293 12.552 71.1733 13C70.9279 13.448 70.8053 13.976 70.8053 14.584C70.8053 15.192 70.9279 15.7253 71.1733 16.184C71.4293 16.632 71.7599 16.9733 72.1653 17.208C72.5813 17.4427 73.0186 17.56 73.4773 17.56C73.9466 17.56 74.3839 17.4427 74.7893 17.208C75.2053 16.9627 75.5359 16.6107 75.7812 16.152C76.0373 15.6933 76.1653 15.16 76.1653 14.552ZM83.649 19.144C82.817 19.144 82.065 18.9573 81.393 18.584C80.721 18.2 80.193 17.6667 79.809 16.984C79.425 16.2907 79.233 15.4907 79.233 14.584C79.233 13.688 79.4303 12.8933 79.825 12.2C80.2197 11.5067 80.7583 10.9733 81.441 10.6C82.1237 10.2267 82.8863 10.04 83.729 10.04C84.5717 10.04 85.3343 10.2267 86.017 10.6C86.6997 10.9733 87.2383 11.5067 87.633 12.2C88.0277 12.8933 88.225 13.688 88.225 14.584C88.225 15.48 88.0223 16.2747 87.617 16.968C87.2117 17.6613 86.657 18.2 85.953 18.584C85.2597 18.9573 84.4917 19.144 83.649 19.144ZM83.649 17.56C84.1183 17.56 84.5557 17.448 84.961 17.224C85.377 17 85.713 16.664 85.969 16.216C86.225 15.768 86.353 15.224 86.353 14.584C86.353 13.944 86.2303 13.4053 85.985 12.968C85.7397 12.52 85.4143 12.184 85.009 11.96C84.6037 11.736 84.1663 11.624 83.697 11.624C83.2277 11.624 82.7903 11.736 82.385 11.96C81.9903 12.184 81.6757 12.52 81.441 12.968C81.2063 13.4053 81.089 13.944 81.089 14.584C81.089 15.5333 81.329 16.2693 81.809 16.792C82.2997 17.304 82.913 17.56 83.649 17.56ZM91.8521 11.464C92.1188 11.016 92.4708 10.6693 92.9081 10.424C93.3561 10.168 93.8841 10.04 94.4921 10.04V11.928H94.0281C93.3135 11.928 92.7695 12.1093 92.3961 12.472C92.0335 12.8347 91.8521 13.464 91.8521 14.36V19H90.0281V10.184H91.8521V11.464ZM98.2968 11.672V16.552C98.2968 16.8827 98.3714 17.1227 98.5208 17.272C98.6808 17.4107 98.9474 17.48 99.3208 17.48H100.441V19H99.0008C98.1794 19 97.5501 18.808 97.1128 18.424C96.6754 18.04 96.4568 17.416 96.4568 16.552V11.672H95.4168V10.184H96.4568V7.992H98.2968V10.184H100.441V11.672H98.2968ZM110.33 8.664C111.546 8.664 112.597 8.888 113.482 9.336C114.367 9.784 115.039 10.4133 115.498 11.224C115.967 12.024 116.202 12.9573 116.202 14.024C116.202 14.8773 116.053 15.6933 115.754 16.472C115.466 17.2507 115.045 17.8853 114.49 18.376C113.946 18.8667 113.301 19.112 112.554 19.112C112.01 19.112 111.583 18.9947 111.274 18.76C110.965 18.5147 110.773 18.1733 110.698 17.736C110.367 18.1627 109.951 18.4987 109.45 18.744C108.949 18.9893 108.426 19.112 107.882 19.112C107.061 19.112 106.415 18.8667 105.946 18.376C105.487 17.8747 105.258 17.1973 105.258 16.344C105.258 15.5333 105.423 14.776 105.754 14.072C106.095 13.368 106.57 12.808 107.178 12.392C107.786 11.9653 108.469 11.752 109.226 11.752C110.154 11.752 110.805 12.0667 111.178 12.696L111.322 11.896H112.906L112.106 16.472C112.074 16.696 112.058 16.8933 112.058 17.064C112.058 17.3413 112.111 17.5493 112.218 17.688C112.335 17.8267 112.538 17.896 112.826 17.896C113.231 17.896 113.578 17.6987 113.866 17.304C114.154 16.8987 114.367 16.4027 114.506 15.816C114.655 15.2293 114.73 14.6587 114.73 14.104C114.73 12.7493 114.335 11.7147 113.546 11C112.757 10.2853 111.61 9.928 110.106 9.928C108.847 9.928 107.717 10.2267 106.714 10.824C105.722 11.4213 104.943 12.2427 104.378 13.288C103.813 14.3333 103.53 15.496 103.53 16.776C103.53 18.1413 103.935 19.1813 104.746 19.896C105.557 20.6107 106.714 20.968 108.218 20.968C109.231 20.968 110.117 20.7813 110.874 20.408L111.114 21.624C110.143 22.04 109.055 22.248 107.85 22.248C106.687 22.248 105.669 22.0293 104.794 21.592C103.919 21.1547 103.242 20.5307 102.762 19.72C102.282 18.92 102.042 17.9867 102.042 16.92C102.042 15.3947 102.394 14.0027 103.098 12.744C103.813 11.4853 104.799 10.4933 106.058 9.768C107.317 9.032 108.741 8.664 110.33 8.664ZM108.442 17.704C108.89 17.704 109.295 17.576 109.658 17.32C110.031 17.0533 110.325 16.7067 110.538 16.28C110.751 15.8427 110.858 15.3787 110.858 14.888C110.858 14.376 110.714 13.96 110.426 13.64C110.149 13.3093 109.754 13.144 109.242 13.144C108.783 13.144 108.378 13.288 108.026 13.576C107.685 13.8533 107.418 14.216 107.226 14.664C107.045 15.112 106.954 15.5813 106.954 16.072C106.954 16.5733 107.077 16.9733 107.322 17.272C107.567 17.56 107.941 17.704 108.442 17.704ZM126.608 14.376C126.608 14.7067 126.587 15.0053 126.544 15.272H119.808C119.861 15.976 120.123 16.5413 120.592 16.968C121.061 17.3947 121.637 17.608 122.32 17.608C123.301 17.608 123.995 17.1973 124.4 16.376H126.368C126.101 17.1867 125.616 17.8533 124.912 18.376C124.219 18.888 123.355 19.144 122.32 19.144C121.477 19.144 120.72 18.9573 120.048 18.584C119.387 18.2 118.864 17.6667 118.48 16.984C118.107 16.2907 117.92 15.4907 117.92 14.584C117.92 13.6773 118.101 12.8827 118.464 12.2C118.837 11.5067 119.355 10.9733 120.016 10.6C120.688 10.2267 121.456 10.04 122.32 10.04C123.152 10.04 123.893 10.2213 124.544 10.584C125.195 10.9467 125.701 11.4587 126.064 12.12C126.427 12.7707 126.608 13.5227 126.608 14.376ZM124.704 13.8C124.693 13.128 124.453 12.5893 123.984 12.184C123.515 11.7787 122.933 11.576 122.24 11.576C121.611 11.576 121.072 11.7787 120.624 12.184C120.176 12.5787 119.909 13.1173 119.824 13.8H124.704ZM132.179 14.536L135.027 19H132.963L131.059 16.008L129.267 19H127.363L130.211 14.664L127.363 10.184H129.427L131.331 13.176L133.123 10.184H135.027L132.179 14.536ZM135.78 14.552C135.78 13.6667 135.961 12.8827 136.324 12.2C136.697 11.5173 137.198 10.9893 137.828 10.616C138.468 10.232 139.172 10.04 139.94 10.04C140.633 10.04 141.236 10.1787 141.748 10.456C142.27 10.7227 142.686 11.0587 142.996 11.464V10.184H144.836V19H142.996V17.688C142.686 18.104 142.265 18.4507 141.732 18.728C141.198 19.0053 140.59 19.144 139.908 19.144C139.15 19.144 138.457 18.952 137.828 18.568C137.198 18.1733 136.697 17.6293 136.324 16.936C135.961 16.232 135.78 15.4373 135.78 14.552ZM142.996 14.584C142.996 13.976 142.868 13.448 142.612 13C142.366 12.552 142.041 12.2107 141.636 11.976C141.23 11.7413 140.793 11.624 140.324 11.624C139.854 11.624 139.417 11.7413 139.012 11.976C138.606 12.2 138.276 12.536 138.02 12.984C137.774 13.4213 137.652 13.944 137.652 14.552C137.652 15.16 137.774 15.6933 138.02 16.152C138.276 16.6107 138.606 16.9627 139.012 17.208C139.428 17.4427 139.865 17.56 140.324 17.56C140.793 17.56 141.23 17.4427 141.636 17.208C142.041 16.9733 142.366 16.632 142.612 16.184C142.868 15.7253 142.996 15.192 142.996 14.584ZM157.903 10.04C158.597 10.04 159.215 10.184 159.759 10.472C160.314 10.76 160.746 11.1867 161.055 11.752C161.375 12.3173 161.535 13 161.535 13.8V19H159.727V14.072C159.727 13.2827 159.53 12.68 159.135 12.264C158.741 11.8373 158.202 11.624 157.519 11.624C156.837 11.624 156.293 11.8373 155.887 12.264C155.493 12.68 155.295 13.2827 155.295 14.072V19H153.487V14.072C153.487 13.2827 153.29 12.68 152.895 12.264C152.501 11.8373 151.962 11.624 151.279 11.624C150.597 11.624 150.053 11.8373 149.647 12.264C149.253 12.68 149.055 13.2827 149.055 14.072V19H147.231V10.184H149.055V11.192C149.354 10.8293 149.733 10.5467 150.191 10.344C150.65 10.1413 151.141 10.04 151.663 10.04C152.367 10.04 152.997 10.1893 153.551 10.488C154.106 10.7867 154.533 11.2187 154.831 11.784C155.098 11.2507 155.514 10.8293 156.079 10.52C156.645 10.2 157.253 10.04 157.903 10.04ZM165.68 11.48C165.99 11.0747 166.411 10.7333 166.944 10.456C167.478 10.1787 168.08 10.04 168.752 10.04C169.52 10.04 170.219 10.232 170.848 10.616C171.488 10.9893 171.99 11.5173 172.352 12.2C172.715 12.8827 172.896 13.6667 172.896 14.552C172.896 15.4373 172.715 16.232 172.352 16.936C171.99 17.6293 171.488 18.1733 170.848 18.568C170.219 18.952 169.52 19.144 168.752 19.144C168.08 19.144 167.483 19.0107 166.96 18.744C166.438 18.4667 166.011 18.1253 165.68 17.72V23.192H163.856V10.184H165.68V11.48ZM171.04 14.552C171.04 13.944 170.912 13.4213 170.656 12.984C170.411 12.536 170.08 12.2 169.664 11.976C169.259 11.7413 168.822 11.624 168.352 11.624C167.894 11.624 167.456 11.7413 167.04 11.976C166.635 12.2107 166.304 12.552 166.048 13C165.803 13.448 165.68 13.976 165.68 14.584C165.68 15.192 165.803 15.7253 166.048 16.184C166.304 16.632 166.635 16.9733 167.04 17.208C167.456 17.4427 167.894 17.56 168.352 17.56C168.822 17.56 169.259 17.4427 169.664 17.208C170.08 16.9627 170.411 16.6107 170.656 16.152C170.912 15.6933 171.04 15.16 171.04 14.552ZM176.524 7.16V19H174.7V7.16H176.524ZM186.999 14.376C186.999 14.7067 186.977 15.0053 186.935 15.272H180.199C180.252 15.976 180.513 16.5413 180.983 16.968C181.452 17.3947 182.028 17.608 182.711 17.608C183.692 17.608 184.385 17.1973 184.791 16.376H186.759C186.492 17.1867 186.007 17.8533 185.303 18.376C184.609 18.888 183.745 19.144 182.711 19.144C181.868 19.144 181.111 18.9573 180.439 18.584C179.777 18.2 179.255 17.6667 178.871 16.984C178.497 16.2907 178.311 15.4907 178.311 14.584C178.311 13.6773 178.492 12.8827 178.855 12.2C179.228 11.5067 179.745 10.9733 180.407 10.6C181.079 10.2267 181.847 10.04 182.711 10.04C183.543 10.04 184.284 10.2213 184.935 10.584C185.585 10.9467 186.092 11.4587 186.455 12.12C186.817 12.7707 186.999 13.5227 186.999 14.376ZM185.095 13.8C185.084 13.128 184.844 12.5893 184.375 12.184C183.905 11.7787 183.324 11.576 182.631 11.576C182.001 11.576 181.463 11.7787 181.015 12.184C180.567 12.5787 180.3 13.1173 180.215 13.8H185.095ZM190.922 11.672V16.552C190.922 16.8827 190.996 17.1227 191.146 17.272C191.306 17.4107 191.572 17.48 191.946 17.48H193.066V19H191.626C190.804 19 190.175 18.808 189.738 18.424C189.3 18.04 189.082 17.416 189.082 16.552V11.672H188.042V10.184H189.082V7.992H190.922V10.184H193.066V11.672H190.922ZM199.307 10.04C199.979 10.04 200.576 10.184 201.099 10.472C201.632 10.76 202.048 11.1867 202.347 11.752C202.656 12.3173 202.811 13 202.811 13.8V19H201.003V14.072C201.003 13.2827 200.806 12.68 200.411 12.264C200.016 11.8373 199.478 11.624 198.795 11.624C198.112 11.624 197.568 11.8373 197.163 12.264C196.768 12.68 196.571 13.2827 196.571 14.072V19H194.747V7.16H196.571V11.208C196.88 10.8347 197.27 10.5467 197.739 10.344C198.219 10.1413 198.742 10.04 199.307 10.04ZM206.066 9.016C205.735 9.016 205.458 8.904 205.234 8.68C205.01 8.456 204.898 8.17867 204.898 7.848C204.898 7.51733 205.01 7.24 205.234 7.016C205.458 6.792 205.735 6.68 206.066 6.68C206.386 6.68 206.658 6.792 206.882 7.016C207.106 7.24 207.218 7.51733 207.218 7.848C207.218 8.17867 207.106 8.456 206.882 8.68C206.658 8.904 206.386 9.016 206.066 9.016ZM206.962 10.184V19H205.138V10.184H206.962ZM213.804 10.04C214.498 10.04 215.116 10.184 215.66 10.472C216.215 10.76 216.647 11.1867 216.956 11.752C217.266 12.3173 217.42 13 217.42 13.8V19H215.612V14.072C215.612 13.2827 215.415 12.68 215.02 12.264C214.626 11.8373 214.087 11.624 213.404 11.624C212.722 11.624 212.178 11.8373 211.772 12.264C211.378 12.68 211.18 13.2827 211.18 14.072V19H209.356V10.184H211.18V11.192C211.479 10.8293 211.858 10.5467 212.316 10.344C212.786 10.1413 213.282 10.04 213.804 10.04ZM223.299 10.04C223.982 10.04 224.584 10.1787 225.107 10.456C225.64 10.7227 226.056 11.0587 226.355 11.464V10.184H228.195V19.144C228.195 19.9547 228.024 20.6747 227.683 21.304C227.342 21.944 226.846 22.4453 226.195 22.808C225.555 23.1707 224.787 23.352 223.891 23.352C222.696 23.352 221.704 23.0693 220.915 22.504C220.126 21.9493 219.678 21.192 219.571 20.232H221.379C221.518 20.6907 221.811 21.0587 222.259 21.336C222.718 21.624 223.262 21.768 223.891 21.768C224.627 21.768 225.219 21.544 225.667 21.096C226.126 20.648 226.355 19.9973 226.355 19.144V17.672C226.046 18.088 225.624 18.44 225.091 18.728C224.568 19.0053 223.971 19.144 223.299 19.144C222.531 19.144 221.827 18.952 221.187 18.568C220.558 18.1733 220.056 17.6293 219.683 16.936C219.32 16.232 219.139 15.4373 219.139 14.552C219.139 13.6667 219.32 12.8827 219.683 12.2C220.056 11.5173 220.558 10.9893 221.187 10.616C221.827 10.232 222.531 10.04 223.299 10.04ZM226.355 14.584C226.355 13.976 226.227 13.448 225.971 13C225.726 12.552 225.4 12.2107 224.995 11.976C224.59 11.7413 224.152 11.624 223.683 11.624C223.214 11.624 222.776 11.7413 222.371 11.976C221.966 12.2 221.635 12.536 221.379 12.984C221.134 13.4213 221.011 13.944 221.011 14.552C221.011 15.16 221.134 15.6933 221.379 16.152C221.635 16.6107 221.966 16.9627 222.371 17.208C222.787 17.4427 223.224 17.56 223.683 17.56C224.152 17.56 224.59 17.4427 224.995 17.208C225.4 16.9733 225.726 16.632 225.971 16.184C226.227 15.7253 226.355 15.192 226.355 14.584ZM233.791 19.144C233.097 19.144 232.473 19.0213 231.919 18.776C231.375 18.52 230.943 18.1787 230.623 17.752C230.303 17.3147 230.132 16.8293 230.111 16.296H231.999C232.031 16.6693 232.207 16.984 232.527 17.24C232.857 17.4853 233.268 17.608 233.759 17.608C234.271 17.608 234.665 17.512 234.943 17.32C235.231 17.1173 235.375 16.8613 235.375 16.552C235.375 16.2213 235.215 15.976 234.895 15.816C234.585 15.656 234.089 15.48 233.407 15.288C232.745 15.1067 232.207 14.9307 231.791 14.76C231.375 14.5893 231.012 14.328 230.703 13.976C230.404 13.624 230.255 13.16 230.255 12.584C230.255 12.1147 230.393 11.688 230.671 11.304C230.948 10.9093 231.343 10.6 231.855 10.376C232.377 10.152 232.975 10.04 233.647 10.04C234.649 10.04 235.455 10.296 236.063 10.808C236.681 11.3093 237.012 11.9973 237.055 12.872H235.231C235.199 12.4773 235.039 12.1627 234.751 11.928C234.463 11.6933 234.073 11.576 233.583 11.576C233.103 11.576 232.735 11.6667 232.479 11.848C232.223 12.0293 232.095 12.2693 232.095 12.568C232.095 12.8027 232.18 13 232.351 13.16C232.521 13.32 232.729 13.448 232.975 13.544C233.22 13.6293 233.583 13.7413 234.063 13.88C234.703 14.0507 235.225 14.2267 235.631 14.408C236.047 14.5787 236.404 14.8347 236.703 15.176C237.001 15.5173 237.156 15.9707 237.167 16.536C237.167 17.0373 237.028 17.4853 236.751 17.88C236.473 18.2747 236.079 18.584 235.567 18.808C235.065 19.032 234.473 19.144 233.791 19.144ZM239.874 19.112C239.543 19.112 239.266 19 239.042 18.776C238.818 18.552 238.706 18.2747 238.706 17.944C238.706 17.6133 238.818 17.336 239.042 17.112C239.266 16.888 239.543 16.776 239.874 16.776C240.194 16.776 240.466 16.888 240.69 17.112C240.914 17.336 241.026 17.6133 241.026 17.944C241.026 18.2747 240.914 18.552 240.69 18.776C240.466 19 240.194 19.112 239.874 19.112ZM242.389 14.584C242.389 13.6773 242.57 12.8827 242.933 12.2C243.306 11.5067 243.818 10.9733 244.469 10.6C245.12 10.2267 245.866 10.04 246.709 10.04C247.776 10.04 248.656 10.296 249.349 10.808C250.053 11.3093 250.528 12.0293 250.773 12.968H248.805C248.645 12.5307 248.389 12.1893 248.037 11.944C247.685 11.6987 247.242 11.576 246.709 11.576C245.962 11.576 245.365 11.8427 244.917 12.376C244.48 12.8987 244.261 13.6347 244.261 14.584C244.261 15.5333 244.48 16.2747 244.917 16.808C245.365 17.3413 245.962 17.608 246.709 17.608C247.765 17.608 248.464 17.144 248.805 16.216H250.773C250.517 17.112 250.037 17.8267 249.333 18.36C248.629 18.8827 247.754 19.144 246.709 19.144C245.866 19.144 245.12 18.9573 244.469 18.584C243.818 18.2 243.306 17.6667 242.933 16.984C242.57 16.2907 242.389 15.4907 242.389 14.584ZM256.415 19.144C255.583 19.144 254.831 18.9573 254.159 18.584C253.487 18.2 252.959 17.6667 252.575 16.984C252.191 16.2907 251.999 15.4907 251.999 14.584C251.999 13.688 252.196 12.8933 252.591 12.2C252.985 11.5067 253.524 10.9733 254.207 10.6C254.889 10.2267 255.652 10.04 256.495 10.04C257.337 10.04 258.1 10.2267 258.783 10.6C259.465 10.9733 260.004 11.5067 260.399 12.2C260.793 12.8933 260.991 13.688 260.991 14.584C260.991 15.48 260.788 16.2747 260.383 16.968C259.977 17.6613 259.423 18.2 258.719 18.584C258.025 18.9573 257.257 19.144 256.415 19.144ZM256.415 17.56C256.884 17.56 257.321 17.448 257.727 17.224C258.143 17 258.479 16.664 258.735 16.216C258.991 15.768 259.119 15.224 259.119 14.584C259.119 13.944 258.996 13.4053 258.751 12.968C258.505 12.52 258.18 12.184 257.775 11.96C257.369 11.736 256.932 11.624 256.463 11.624C255.993 11.624 255.556 11.736 255.151 11.96C254.756 12.184 254.441 12.52 254.207 12.968C253.972 13.4053 253.855 13.944 253.855 14.584C253.855 15.5333 254.095 16.2693 254.575 16.792C255.065 17.304 255.679 17.56 256.415 17.56ZM273.466 10.04C274.159 10.04 274.778 10.184 275.322 10.472C275.876 10.76 276.308 11.1867 276.618 11.752C276.938 12.3173 277.098 13 277.098 13.8V19H275.29V14.072C275.29 13.2827 275.092 12.68 274.698 12.264C274.303 11.8373 273.764 11.624 273.082 11.624C272.399 11.624 271.855 11.8373 271.45 12.264C271.055 12.68 270.858 13.2827 270.858 14.072V19H269.05V14.072C269.05 13.2827 268.852 12.68 268.458 12.264C268.063 11.8373 267.524 11.624 266.842 11.624C266.159 11.624 265.615 11.8373 265.21 12.264C264.815 12.68 264.618 13.2827 264.618 14.072V19H262.794V10.184H264.618V11.192C264.916 10.8293 265.295 10.5467 265.754 10.344C266.212 10.1413 266.703 10.04 267.226 10.04C267.93 10.04 268.559 10.1893 269.114 10.488C269.668 10.7867 270.095 11.2187 270.394 11.784C270.66 11.2507 271.076 10.8293 271.642 10.52C272.207 10.2 272.815 10.04 273.466 10.04Z" fill="white"/>
<path d="M2 7.41992V21.5919L9.086 14.5059L2 7.41992Z" fill="white"/>
<path d="M3.4082 6L12.3792 14.971C13.5122 16.104 15.4882 16.104 16.6212 14.971L25.5922 6H3.4082Z" fill="white"/>
<path d="M18.0349 16.3849C17.0919 17.3289 15.8359 17.8499 14.4999 17.8499C13.1639 17.8499 11.9079 17.3289 10.9649 16.3849L10.4999 15.9199L3.41992 22.9999H25.5799L18.4999 15.9199L18.0349 16.3849Z" fill="white"/>
<path d="M19.9141 14.5059L27.0001 21.5919V7.41992L19.9141 14.5059Z" fill="white"/>
</svg>
