<svg width="285" height="36" viewBox="0 0 285 36" fill="none" xmlns="http://www.w3.org/2000/svg">
<path d="M0.339844 0.878906H10.5176L10.5 22.9746H20.4844V27H0.339844V0.878906ZM22.6465 18.2988C22.6465 16.916 22.9277 15.668 23.4902 14.5547C24.0645 13.4414 24.8848 12.4922 25.9512 11.707C27.0293 10.9219 28.3418 10.3184 29.8887 9.89648C31.4355 9.46289 33.1934 9.24609 35.1621 9.24609C37.1309 9.24609 38.8887 9.46289 40.4355 9.89648C41.9824 10.3184 43.2891 10.9219 44.3555 11.707C45.4336 12.4922 46.2539 13.4414 46.8164 14.5547C47.3906 15.668 47.6777 16.916 47.6777 18.2988C47.6777 19.6699 47.3906 20.9121 46.8164 22.0254C46.2539 23.1387 45.4336 24.0879 44.3555 24.873C43.2891 25.6582 41.9824 26.2676 40.4355 26.7012C38.8887 27.123 37.1309 27.334 35.1621 27.334C33.1934 27.334 31.4355 27.123 29.8887 26.7012C28.3418 26.2676 27.0293 25.6582 25.9512 24.873C24.8848 24.0879 24.0645 23.1387 23.4902 22.0254C22.9277 20.9121 22.6465 19.6699 22.6465 18.2988ZM35.1621 24.1172C35.5957 24.1172 35.9824 24.0293 36.3223 23.8535C36.6621 23.6777 36.9434 23.373 37.166 22.9395C37.3887 22.4941 37.5586 21.8965 37.6758 21.1465C37.793 20.3965 37.8516 19.4473 37.8516 18.2988C37.8516 17.1387 37.793 16.1836 37.6758 15.4336C37.5586 14.6836 37.3887 14.0918 37.166 13.6582C36.9434 13.2129 36.6621 12.9023 36.3223 12.7266C35.9824 12.5508 35.5957 12.4629 35.1621 12.4629C34.7168 12.4629 34.3242 12.5508 33.9844 12.7266C33.6562 12.9023 33.3809 13.2129 33.1582 13.6582C32.9355 14.0918 32.7656 14.6836 32.6484 15.4336C32.5312 16.1836 32.4727 17.1387 32.4727 18.2988C32.4727 19.4473 32.5312 20.3965 32.6484 21.1465C32.7656 21.8965 32.9355 22.4941 33.1582 22.9395C33.3809 23.373 33.6562 23.6777 33.9844 23.8535C34.3242 24.0293 34.7168 24.1172 35.1621 24.1172ZM51.457 9.58008H59.877L60.7207 12.1113C61.3887 11.6191 62.0156 11.1973 62.6016 10.8457C63.1992 10.4824 63.7734 10.1836 64.3242 9.94922C64.8867 9.70312 65.4258 9.52734 65.9414 9.42188C66.4688 9.30469 66.9902 9.24609 67.5059 9.24609C68.2559 9.24609 68.9297 9.35156 69.5273 9.5625C70.1367 9.77344 70.6523 10.0723 71.0742 10.459C71.5078 10.8457 71.8359 11.3086 72.0586 11.8477C72.293 12.375 72.4102 12.9609 72.4102 13.6055C72.4102 14.25 72.2695 14.8418 71.9883 15.3809C71.7188 15.9199 71.3203 16.3887 70.793 16.7871C70.2656 17.1738 69.6152 17.4785 68.8418 17.7012C68.0801 17.9121 67.207 18.0176 66.2227 18.0176L63.1289 13.8867C62.7891 13.8867 62.4199 13.957 62.0215 14.0977C61.623 14.2383 61.2832 14.4609 61.002 14.7656V27H51.457V9.58008ZM74.0098 18.1934C74.0098 17.1855 74.168 16.2656 74.4844 15.4336C74.8008 14.6016 75.2344 13.8574 75.7852 13.2012C76.3477 12.5332 77.0098 11.9531 77.7715 11.4609C78.5332 10.9688 79.3594 10.5586 80.25 10.2305C81.1406 9.90234 82.0723 9.65625 83.0449 9.49219C84.0176 9.32812 85.002 9.24609 85.998 9.24609C87.3105 9.24609 88.5 9.38086 89.5664 9.65039C90.6445 9.9082 91.5996 10.2656 92.4316 10.7227C93.2754 11.1797 94.002 11.7129 94.6113 12.3223C95.2324 12.9316 95.7422 13.582 96.1406 14.2734C96.5508 14.9531 96.8496 15.6562 97.0371 16.3828C97.2363 17.1094 97.3359 17.8184 97.3359 18.5098L84.0469 20.1094C84.3047 21.4102 84.8203 22.418 85.5938 23.1328C86.3672 23.8477 87.4512 24.2051 88.8457 24.2051C89.6074 24.2051 90.3164 24.1113 90.9727 23.9238C91.6406 23.7363 92.1621 23.5078 92.5371 23.2383L93.9434 25.6992C93.5098 25.9219 93.0352 26.1328 92.5195 26.332C92.0156 26.5312 91.4531 26.707 90.832 26.8594C90.2227 27 89.543 27.1113 88.793 27.1934C88.0547 27.2871 87.2402 27.334 86.3496 27.334C84.2168 27.334 82.377 27.0879 80.8301 26.5957C79.2832 26.0918 78 25.4238 76.9805 24.5918C75.9727 23.748 75.2227 22.7754 74.7305 21.6738C74.25 20.5723 74.0098 19.4121 74.0098 18.1934ZM88.8105 16.7168C88.8105 15.1934 88.6172 14.0859 88.2305 13.3945C87.8555 12.7031 87.293 12.3574 86.543 12.3574C86.1562 12.3574 85.7988 12.4512 85.4707 12.6387C85.1426 12.8262 84.8613 13.1191 84.627 13.5176C84.3926 13.916 84.2051 14.4316 84.0645 15.0645C83.9238 15.6855 83.8477 16.4414 83.8359 17.332L88.8105 16.7168ZM100.641 9.58008H109.061L109.904 12.1113C111.146 11.1621 112.406 10.4473 113.684 9.9668C114.973 9.48633 116.326 9.24609 117.744 9.24609C118.811 9.24609 119.777 9.48047 120.645 9.94922C121.512 10.418 122.191 11.1621 122.684 12.1816C123.223 11.7949 123.803 11.4258 124.424 11.0742C125.045 10.7227 125.695 10.4121 126.375 10.1426C127.066 9.86133 127.781 9.64453 128.52 9.49219C129.258 9.32812 130.025 9.24609 130.822 9.24609C131.631 9.24609 132.387 9.38086 133.09 9.65039C133.793 9.91992 134.402 10.3359 134.918 10.8984C135.434 11.4609 135.838 12.1875 136.131 13.0781C136.424 13.957 136.57 15.0117 136.57 16.2422V27H127.025V15.6445C127.025 15.0352 126.885 14.5898 126.604 14.3086C126.334 14.0273 125.941 13.8867 125.426 13.8867C125.156 13.8867 124.852 13.9512 124.512 14.0801C124.172 14.1973 123.826 14.373 123.475 14.6074V27H113.93V15.6445C113.93 15.0352 113.795 14.5898 113.525 14.3086C113.256 14.0273 112.863 13.8867 112.348 13.8867C112.008 13.8867 111.633 13.957 111.223 14.0977C110.812 14.2383 110.467 14.4609 110.186 14.7656V27H100.641V9.58008ZM153.129 0.878906H163.307L163.289 27H153.129V0.878906ZM169.125 9.58008H177.914L178.652 11.8652C178.98 11.5488 179.373 11.2324 179.83 10.916C180.287 10.5996 180.791 10.3184 181.342 10.0723C181.893 9.82617 182.484 9.62695 183.117 9.47461C183.762 9.32227 184.43 9.24609 185.121 9.24609C186.445 9.24609 187.688 9.43945 188.848 9.82617C190.008 10.2129 191.021 10.7871 191.889 11.5488C192.756 12.3105 193.436 13.2539 193.928 14.3789C194.432 15.5039 194.684 16.8105 194.684 18.2988C194.684 19.6699 194.443 20.9121 193.963 22.0254C193.494 23.127 192.814 24.0762 191.924 24.873C191.033 25.6582 189.949 26.2676 188.672 26.7012C187.406 27.123 185.982 27.334 184.4 27.334C183.193 27.334 182.104 27.1934 181.131 26.9121C180.17 26.6191 179.35 26.2148 178.67 25.6992V35.7012H169.125V9.58008ZM178.67 23.3965C178.963 23.666 179.291 23.877 179.654 24.0293C180.018 24.1816 180.381 24.2578 180.744 24.2578C181.33 24.2578 181.869 24.1523 182.361 23.9414C182.865 23.7188 183.299 23.3789 183.662 22.9219C184.037 22.4648 184.324 21.8848 184.523 21.1816C184.734 20.4668 184.84 19.6113 184.84 18.6152C184.84 17.6074 184.74 16.7461 184.541 16.0312C184.354 15.3164 184.09 14.7363 183.75 14.291C183.41 13.834 183.006 13.5 182.537 13.2891C182.068 13.0781 181.553 12.9727 180.99 12.9727C180.545 12.9727 180.123 13.0547 179.725 13.2188C179.326 13.3711 178.975 13.582 178.67 13.8516V23.3965ZM199.166 22.5C199.646 22.7578 200.109 22.9922 200.555 23.2031C201 23.4141 201.445 23.5957 201.891 23.748C202.336 23.8887 202.781 24 203.227 24.082C203.684 24.1641 204.158 24.2051 204.65 24.2051C205.424 24.2051 205.98 24.1113 206.32 23.9238C206.66 23.7363 206.83 23.4902 206.83 23.1855C206.83 22.998 206.771 22.8398 206.654 22.7109C206.549 22.582 206.396 22.4707 206.197 22.377C205.998 22.2715 205.764 22.1777 205.494 22.0957C205.225 22.002 204.926 21.9082 204.598 21.8145L203.596 21.5156C202.611 21.2227 201.762 20.8828 201.047 20.4961C200.332 20.0977 199.746 19.6523 199.289 19.1602C198.832 18.668 198.492 18.1406 198.27 17.5781C198.047 17.0039 197.936 16.3945 197.936 15.75C197.936 14.918 198.123 14.1152 198.498 13.3418C198.873 12.5566 199.453 11.8594 200.238 11.25C201.023 10.6406 202.025 10.1543 203.244 9.79102C204.475 9.42773 205.934 9.24609 207.621 9.24609C208.254 9.24609 208.91 9.28711 209.59 9.36914C210.281 9.43945 210.949 9.5332 211.594 9.65039C212.238 9.76758 212.842 9.90234 213.404 10.0547C213.967 10.1953 214.441 10.3418 214.828 10.4941L213.281 13.3242C213.023 13.1836 212.719 13.0605 212.367 12.9551C212.027 12.8379 211.676 12.7383 211.312 12.6562C210.949 12.5625 210.598 12.4922 210.258 12.4453C209.93 12.3984 209.648 12.375 209.414 12.375C208.734 12.375 208.248 12.4688 207.955 12.6562C207.662 12.8438 207.516 13.0723 207.516 13.3418C207.516 13.4473 207.545 13.5586 207.604 13.6758C207.662 13.793 207.779 13.916 207.955 14.0449C208.131 14.1738 208.377 14.3086 208.693 14.4492C209.01 14.5898 209.426 14.7363 209.941 14.8887L210.926 15.1875C212.016 15.5156 212.918 15.8848 213.633 16.2949C214.359 16.7051 214.939 17.1504 215.373 17.6309C215.818 18.0996 216.129 18.5977 216.305 19.125C216.492 19.6523 216.586 20.1914 216.586 20.7422C216.586 21.5859 216.381 22.4062 215.971 23.2031C215.561 24 214.904 24.7031 214.002 25.3125C213.111 25.9219 211.957 26.4141 210.539 26.7891C209.121 27.1523 207.404 27.334 205.389 27.334C204.521 27.334 203.725 27.2988 202.998 27.2285C202.271 27.1582 201.586 27.0527 200.941 26.9121C200.297 26.7715 199.676 26.6016 199.078 26.4023C198.492 26.1914 197.912 25.957 197.338 25.6992L199.166 22.5ZM220.102 9.5625H229.646V20.2148C229.646 20.6836 229.688 21.0762 229.77 21.3926C229.852 21.709 229.975 21.9668 230.139 22.166C230.314 22.3535 230.525 22.4941 230.771 22.5879C231.018 22.6699 231.311 22.7109 231.65 22.7109C232.072 22.7109 232.441 22.6465 232.758 22.5176C233.074 22.377 233.396 22.1367 233.725 21.7969V9.5625H243.27V26.9824H234.85L234.006 24.4512C232.939 25.4941 231.785 26.2383 230.543 26.6836C229.301 27.1172 228.035 27.334 226.746 27.334C224.625 27.334 222.984 26.7656 221.824 25.6289C220.676 24.4805 220.102 22.7168 220.102 20.3379V9.5625ZM248.191 9.58008H256.611L257.455 12.1113C258.697 11.1621 259.957 10.4473 261.234 9.9668C262.523 9.48633 263.877 9.24609 265.295 9.24609C266.361 9.24609 267.328 9.48047 268.195 9.94922C269.062 10.418 269.742 11.1621 270.234 12.1816C270.773 11.7949 271.354 11.4258 271.975 11.0742C272.596 10.7227 273.246 10.4121 273.926 10.1426C274.617 9.86133 275.332 9.64453 276.07 9.49219C276.809 9.32812 277.576 9.24609 278.373 9.24609C279.182 9.24609 279.938 9.38086 280.641 9.65039C281.344 9.91992 281.953 10.3359 282.469 10.8984C282.984 11.4609 283.389 12.1875 283.682 13.0781C283.975 13.957 284.121 15.0117 284.121 16.2422V27H274.576V15.6445C274.576 15.0352 274.436 14.5898 274.154 14.3086C273.885 14.0273 273.492 13.8867 272.977 13.8867C272.707 13.8867 272.402 13.9512 272.062 14.0801C271.723 14.1973 271.377 14.373 271.025 14.6074V27H261.48V15.6445C261.48 15.0352 261.346 14.5898 261.076 14.3086C260.807 14.0273 260.414 13.8867 259.898 13.8867C259.559 13.8867 259.184 13.957 258.773 14.0977C258.363 14.2383 258.018 14.4609 257.736 14.7656V27H248.191V9.58008Z" fill="#771016"/>
</svg>
